# Blender 4.4.3
# www.blender.org
mtllib chocolate mold.mtl
o Cube
v -1.000000 -0.500000 2.000000
v -1.000000 0.500000 2.000000
v -1.000000 -0.500000 -2.000000
v -1.000000 0.500000 -2.000000
v 1.000000 -0.500000 2.000000
v 1.000000 0.500000 2.000000
v 1.000000 -0.500000 -2.000000
v 1.000000 0.500000 -2.000000
v -0.884530 -0.442265 1.769060
v -0.858579 0.500000 1.717157
v -0.884530 -0.442265 -1.769060
v -0.858579 0.500000 -1.717157
v 0.884530 -0.442265 1.769060
v 0.858579 0.500000 1.717157
v 0.884530 -0.442265 -1.769060
v 0.858579 0.500000 -1.717157
vn -1.0000 -0.0000 -0.0000
vn -0.0000 -0.0000 -1.0000
vn 1.0000 -0.0000 -0.0000
vn -0.0000 -0.0000 1.0000
vn -0.0000 -1.0000 -0.0000
vn 0.9996 -0.0275 -0.0000
vn -0.0000 -0.0550 0.9985
vn -0.9996 -0.0275 -0.0000
vn -0.0000 -0.0550 -0.9985
vn -0.0000 1.0000 -0.0000
vt 0.375000 0.000000
vt 0.625000 0.000000
vt 0.625000 0.250000
vt 0.375000 0.250000
vt 0.625000 0.500000
vt 0.375000 0.500000
vt 0.625000 0.750000
vt 0.375000 0.750000
vt 0.625000 1.000000
vt 0.375000 1.000000
vt 0.125000 0.500000
vt 0.125000 0.750000
s 0
f 1/1/1 2/2/1 4/3/1 3/4/1
f 3/4/2 4/3/2 8/5/2 7/6/2
f 7/6/3 8/5/3 6/7/3 5/8/3
f 5/8/4 6/7/4 2/9/4 1/10/4
f 3/11/5 7/6/5 5/8/5 1/12/5
f 9/1/6 11/4/6 12/3/6 10/2/6
f 11/4/7 15/6/7 16/5/7 12/3/7
f 15/6/8 13/8/8 14/7/8 16/5/8
f 13/8/9 9/10/9 10/9/9 14/7/9
f 11/11/10 9/12/10 13/8/10 15/6/10
f 4/3/10 2/2/10 10/2/10 12/3/10
f 8/5/10 4/3/10 12/3/10 16/5/10
f 6/7/10 8/5/10 16/5/10 14/7/10
f 2/9/10 6/7/10 14/7/10 10/9/10
